<svg width="200" height="91" viewBox="0 0 200 91" fill="none" xmlns="http://www.w3.org/2000/svg">
<path d="M191.393 72.8726H189.106L188.384 70.4556C188.264 69.9722 188.083 69.5492 187.963 69.3075C187.842 69.0054 187.602 68.8241 187.361 68.7033C187.12 68.5824 186.759 68.4616 186.398 68.4616H184.833V72.8726H182.666V62.0565H187C188.324 62.0565 189.287 62.2982 189.889 62.842C190.491 63.3859 190.852 64.1714 190.852 65.259C190.852 65.9841 190.671 66.528 190.31 66.9509C189.949 67.3739 189.407 67.676 188.745 67.7969C189.287 67.9782 189.648 68.2803 189.949 68.7033C190.19 69.1262 190.491 69.7305 190.671 70.4556L191.393 72.8726ZM187.12 66.7697C187.602 66.7697 187.963 66.6488 188.264 66.4071C188.565 66.1654 188.745 65.7424 188.745 65.259C188.745 64.7756 188.565 64.3527 188.264 64.111C187.963 63.8693 187.602 63.7484 187.12 63.7484H184.893V66.7697H187.12Z" fill="#F8F8F8"/>
<path d="M176.287 72.8726C174.902 72.8726 173.939 72.5705 173.337 72.0266C172.736 71.4224 172.435 70.6369 172.435 69.5492V65.4403C172.435 64.3527 172.736 63.5067 173.337 62.9629C173.939 62.3586 174.902 62.1169 176.287 62.1169H179.898V63.8088H176.287C175.745 63.8088 175.324 63.9297 175.023 64.2318C174.782 64.4735 174.601 64.8965 174.601 65.5007V66.7092H179.175V68.4011H174.601V69.6096C174.601 70.1535 174.722 70.5764 175.023 70.8786C175.324 71.1203 175.745 71.3015 176.287 71.3015H179.898V72.9934H176.287V72.8726Z" fill="#F8F8F8"/>
<path d="M169.546 62.0565V70.3347C169.546 71.1807 169.365 71.7849 169.064 72.2079C168.703 72.6309 168.161 72.8726 167.439 72.8726H165.934L162.745 65.5007V72.8726H160.698V62.0565H163.166L167.078 70.9994H167.138C167.319 70.9994 167.439 70.939 167.499 70.7577C167.56 70.5764 167.62 70.3347 167.62 69.9118V61.9961H169.546V62.0565Z" fill="#F8F8F8"/>
<path d="M153.476 73.0539C152.031 73.0539 150.888 72.7517 150.105 72.0871C149.323 71.4224 148.962 70.4556 148.962 69.1262V65.8029C148.962 64.5339 149.323 63.5067 150.105 62.842C150.888 62.1774 152.031 61.8148 153.476 61.8148C154.559 61.8148 155.402 61.9961 156.064 62.2982C156.726 62.6608 157.268 63.1442 157.689 63.8088L156.064 64.9569C155.763 64.4131 155.402 64.0505 155.041 63.8693C154.68 63.6276 154.198 63.5067 153.536 63.5067C152.693 63.5067 152.092 63.688 151.731 64.0505C151.369 64.4131 151.189 64.9569 151.189 65.7424V69.0658C151.189 69.7909 151.369 70.3952 151.731 70.7577C152.092 71.1203 152.693 71.3015 153.536 71.3015C154.258 71.3015 154.8 71.1807 155.161 70.939C155.522 70.6973 155.703 70.3347 155.703 69.8513V69.3679C155.703 68.7033 155.402 68.4011 154.8 68.4011H153.055V66.7092H155.402C156.244 66.7092 156.846 66.8905 157.207 67.2531C157.569 67.6156 157.809 68.2199 157.809 69.0054V69.9722C157.809 70.8786 157.448 71.6037 156.666 72.1475C155.823 72.7517 154.8 73.0539 153.476 73.0539Z" fill="#F8F8F8"/>
<path d="M143.665 62.0565H145.832V72.8726H143.665V62.0565Z" fill="#F8F8F8"/>
<path d="M136.383 73.0539C135.661 73.0539 134.999 72.9934 134.517 72.8122C134.036 72.6309 133.614 72.4496 133.253 72.1475C132.892 71.8454 132.591 71.4828 132.23 70.9994L133.674 69.7909C134.096 70.3952 134.517 70.8181 134.878 71.0598C135.3 71.3015 135.781 71.4224 136.383 71.4224C137.165 71.4224 137.767 71.3015 138.128 71.0598C138.489 70.8181 138.67 70.4556 138.67 69.9118C138.67 69.6701 138.61 69.4284 138.429 69.2471C138.249 69.0658 137.948 68.8845 137.526 68.7637C137.105 68.6428 136.503 68.4616 135.661 68.2803C134.698 68.099 133.915 67.7365 133.434 67.1926C132.952 66.6488 132.711 65.9237 132.711 65.0778C132.711 64.4131 132.892 63.8693 133.193 63.3859C133.494 62.9025 133.975 62.5399 134.577 62.2982C135.179 62.0565 135.841 61.9357 136.684 61.9357C137.707 61.9357 138.55 62.1169 139.151 62.4191C139.753 62.7212 140.235 63.1442 140.656 63.7484L139.212 64.8965C138.911 64.5944 138.61 64.3527 138.429 64.1714C138.249 63.9901 138.008 63.8693 137.707 63.7484C137.466 63.6276 137.105 63.6276 136.744 63.6276C136.142 63.6276 135.721 63.7484 135.42 63.9901C135.119 64.2318 134.999 64.5944 134.999 65.0778C134.999 65.5612 135.179 65.8633 135.54 66.105C135.901 66.2863 136.383 66.4675 136.985 66.5884C137.888 66.7697 138.55 66.9509 139.091 67.1322C139.633 67.3135 140.054 67.6156 140.415 68.099C140.776 68.522 140.957 69.1262 140.957 69.8513C140.957 70.939 140.596 71.7245 139.813 72.2683C139.031 72.7517 137.888 73.0539 136.383 73.0539Z" fill="#F8F8F8"/>
<path d="M126.572 72.8726C125.188 72.8726 124.225 72.5705 123.623 72.0266C123.021 71.4224 122.72 70.6369 122.72 69.5492V65.4403C122.72 64.3527 123.021 63.5067 123.623 62.9629C124.225 62.3586 125.188 62.1169 126.572 62.1169H130.184V63.8088H126.572C126.031 63.8088 125.609 63.9297 125.308 64.2318C125.068 64.4735 124.887 64.8965 124.887 65.5007V66.7092H129.461V68.4011H124.887V69.6096C124.887 70.1535 125.008 70.5764 125.308 70.8786C125.609 71.1203 126.031 71.3015 126.572 71.3015H130.184V72.9934H126.572V72.8726Z" fill="#F8F8F8"/>
<path d="M111.345 62.0565H115.378C116.581 62.0565 117.544 62.2378 118.267 62.6003C118.989 62.9629 119.47 63.5067 119.771 64.2922C120.072 65.0778 120.253 66.105 120.253 67.4948C120.253 68.8241 120.072 69.9118 119.771 70.6973C119.47 71.4828 118.929 72.0266 118.267 72.3892C117.544 72.7517 116.642 72.933 115.378 72.933H111.345V62.0565ZM115.378 71.1807C116.04 71.1807 116.581 71.0598 117.003 70.8181C117.364 70.5764 117.665 70.2139 117.845 69.6701C118.026 69.1262 118.086 68.4011 118.086 67.4948C118.086 66.5884 118.026 65.8633 117.845 65.3195C117.665 64.7756 117.424 64.4131 117.003 64.1714C116.642 63.9297 116.1 63.8088 115.378 63.8088H113.572V71.2411H115.378V71.1807Z" fill="#F8F8F8"/>
<path d="M178.092 50.6361L174.541 44.4728H176.948L179.236 48.6421L181.462 44.4728H183.87L180.259 50.6361V55.2888H178.092V50.6361Z" fill="#F8F8F8"/>
<path d="M173.337 55.2888H171.05L170.328 52.8718C170.208 52.3884 170.027 51.9655 169.907 51.7238C169.786 51.4216 169.546 51.2404 169.305 51.1195C169.064 50.9987 168.703 50.8778 168.342 50.8778H166.777V55.2888H164.61V44.4728H168.944C170.268 44.4728 171.231 44.7145 171.833 45.2583C172.435 45.8021 172.796 46.5877 172.796 47.6753C172.796 48.4004 172.615 48.9442 172.254 49.3672C171.893 49.7902 171.351 50.0923 170.689 50.2132C171.231 50.3944 171.592 50.6965 171.893 51.1195C172.194 51.5425 172.435 52.1467 172.615 52.8718L173.337 55.2888ZM169.064 49.1859C169.546 49.1859 169.907 49.0651 170.208 48.8234C170.509 48.5817 170.689 48.1587 170.689 47.6753C170.689 47.1919 170.509 46.7689 170.208 46.5272C169.907 46.2855 169.546 46.1647 169.064 46.1647H166.837V49.1859H169.064Z" fill="#F8F8F8"/>
<path d="M158.531 55.2888C157.207 55.2888 156.244 54.9867 155.703 54.4429C155.161 53.8386 154.86 53.0531 154.86 51.9655V44.4728H157.027V51.9051C157.027 52.4489 157.147 52.8718 157.388 53.174C157.629 53.4157 157.99 53.5969 158.531 53.5969H161.962V55.2888H158.531Z" fill="#F8F8F8"/>
<path d="M148.841 55.2888C147.457 55.2888 146.494 54.9867 145.892 54.4429C145.29 53.8386 144.99 53.0531 144.99 51.9655V47.8566C144.99 46.7689 145.29 45.923 145.892 45.3792C146.494 44.7749 147.457 44.5332 148.841 44.5332H152.453V46.2251H148.841C148.3 46.2251 147.878 46.346 147.578 46.6481C147.337 46.8898 147.156 47.3128 147.156 47.917V49.1255H151.73V50.8174H147.156V52.0259C147.156 52.5697 147.277 52.9927 147.578 53.2948C147.878 53.5365 148.3 53.7178 148.841 53.7178H152.453V55.4097H148.841V55.2888Z" fill="#F8F8F8"/>
<path d="M143.184 44.4728L140.716 55.2888H140.114C139.512 55.2888 139.031 55.2284 138.67 55.0471C138.309 54.9263 138.068 54.6846 137.827 54.322C137.586 53.9595 137.346 53.4761 137.165 52.8114L136.383 50.5757L135.661 52.8114C135.42 53.4761 135.239 53.9595 134.998 54.322C134.758 54.6846 134.457 54.9263 134.096 55.0471C133.735 55.168 133.313 55.2888 132.711 55.2888H132.109L129.642 44.4728H131.688L133.674 53.174C133.795 53.0531 133.855 52.8719 133.975 52.5093L136.443 45.6209L138.911 52.5093C139.031 52.8114 139.151 53.0531 139.212 53.174L141.198 44.4728H143.184Z" fill="#F8F8F8"/>
<path d="M124.225 55.2888C122.841 55.2888 121.878 54.9867 121.276 54.4429C120.674 53.8386 120.373 53.0531 120.373 51.9655V47.8566C120.373 46.7689 120.674 45.923 121.276 45.3792C121.878 44.7749 122.841 44.5332 124.225 44.5332H127.836V46.2251H124.225C123.684 46.2251 123.262 46.346 122.961 46.6481C122.721 46.8898 122.54 47.3128 122.54 47.917V49.1255H127.114V50.8174H122.54V52.0259C122.54 52.5697 122.66 52.9927 122.961 53.2948C123.262 53.5365 123.684 53.7178 124.225 53.7178H127.836V55.4097H124.225V55.2888Z" fill="#F8F8F8"/>
<path d="M113.632 55.4701C112.85 55.4701 112.188 55.3493 111.706 55.1076C111.225 54.8659 110.804 54.5033 110.322 53.9595L111.586 52.6301C111.887 53.0531 112.188 53.3552 112.489 53.4761C112.79 53.6574 113.151 53.7178 113.572 53.7178C114.234 53.7178 114.716 53.5969 115.077 53.2948C115.438 52.9927 115.558 52.5697 115.558 52.0259V44.4728H117.725V52.0259C117.725 53.174 117.364 54.0199 116.702 54.5637C116.04 55.168 115.017 55.4701 113.632 55.4701Z" fill="#F8F8F8"/>
<path d="M197.111 35.1674H192.898L192.176 37.7052H190.009L192.657 29.0645C192.838 28.4602 193.018 27.9768 193.259 27.6143C193.44 27.2517 193.68 27.01 193.981 26.8892C194.282 26.7683 194.643 26.6475 195.065 26.6475C195.486 26.6475 195.847 26.7079 196.088 26.8892C196.389 27.01 196.63 27.2517 196.81 27.6143C197.051 27.9768 197.231 28.4602 197.412 29.0645L200.06 37.7052H197.893L197.111 35.1674ZM196.63 33.5359L195.366 29.0645C195.305 28.8228 195.185 28.6415 195.005 28.6415C194.824 28.6415 194.764 28.7623 194.643 29.0645L193.379 33.5359H196.63Z" fill="#F8F8F8"/>
<path d="M185.254 26.8892H187.421V37.7052H185.254V26.8892Z" fill="#F8F8F8"/>
<path d="M177.972 37.8865C177.249 37.8865 176.587 37.8261 176.106 37.6448C175.624 37.4635 175.203 37.2823 174.842 36.9801C174.481 36.678 174.18 36.3155 173.819 35.8321L175.263 34.6236C175.685 35.2278 176.106 35.6508 176.467 35.8925C176.888 36.1342 177.37 36.255 177.972 36.255C178.754 36.255 179.356 36.1342 179.717 35.8925C180.078 35.6508 180.259 35.2882 180.259 34.7444C180.259 34.5027 180.199 34.261 180.018 34.0797C179.838 33.8985 179.537 33.7172 179.115 33.5963C178.694 33.4755 178.092 33.2942 177.249 33.1129C176.287 32.9317 175.504 32.5691 175.023 32.0253C174.541 31.4815 174.3 30.7564 174.3 29.9104C174.3 29.2457 174.481 28.7019 174.782 28.2185C175.083 27.7351 175.564 27.3726 176.166 27.1309C176.768 26.8892 177.43 26.7683 178.273 26.7683C179.296 26.7683 180.138 26.9496 180.74 27.2517C181.342 27.5538 181.824 27.9768 182.245 28.5811L180.8 29.7291C180.5 29.427 180.199 29.1853 180.018 29.004C179.838 28.8228 179.597 28.7019 179.296 28.5811C179.055 28.4602 178.694 28.4602 178.333 28.4602C177.731 28.4602 177.31 28.5811 177.009 28.8228C176.708 29.0645 176.587 29.427 176.587 29.9104C176.587 30.3938 176.768 30.6959 177.129 30.9376C177.49 31.1189 177.972 31.3002 178.574 31.421C179.476 31.6023 180.138 31.7836 180.68 31.9649C181.222 32.1461 181.643 32.4483 182.004 32.9317C182.365 33.3546 182.546 33.9589 182.546 34.684C182.546 35.7716 182.185 36.5572 181.402 37.101C180.62 37.6448 179.476 37.8865 177.972 37.8865Z" fill="#F8F8F8"/>
<path d="M168.161 37.7052C166.777 37.7052 165.814 37.4031 165.212 36.8593C164.61 36.255 164.309 35.4695 164.309 34.3819V30.273C164.309 29.1853 164.61 28.3394 165.212 27.7955C165.814 27.1913 166.777 26.9496 168.161 26.9496H171.772V28.6415H168.161C167.62 28.6415 167.198 28.7623 166.897 29.0645C166.657 29.3062 166.476 29.7291 166.476 30.3334V31.5419H171.05V33.2338H166.476V34.4423C166.476 34.9861 166.596 35.4091 166.897 35.7112C167.198 35.9529 167.62 36.1342 168.161 36.1342H171.772V37.8261H168.161V37.7052Z" fill="#F8F8F8"/>
<path d="M161.481 26.8892V35.1674C161.481 36.0133 161.3 36.6176 160.999 37.0406C160.638 37.4635 160.096 37.7052 159.374 37.7052H157.87L154.68 30.3334V37.7052H152.633V26.8892H155.101L159.013 35.8321H159.073C159.254 35.8321 159.374 35.7716 159.434 35.5904C159.495 35.4091 159.555 35.1674 159.555 34.7444V26.8892H161.481Z" fill="#F8F8F8"/>
<path d="M145.11 37.8865C143.665 37.8865 142.582 37.5844 141.8 36.9197C141.077 36.255 140.656 35.2882 140.656 33.9589V30.6355C140.656 29.3666 141.017 28.3394 141.8 27.6747C142.582 27.01 143.665 26.6475 145.11 26.6475C146.554 26.6475 147.638 27.01 148.36 27.6747C149.142 28.3394 149.503 29.3062 149.503 30.6355V33.9589C149.503 35.2278 149.142 36.255 148.36 36.9197C147.638 37.5844 146.554 37.8865 145.11 37.8865ZM145.11 36.1946C145.832 36.1946 146.374 36.0133 146.735 35.6508C147.096 35.2882 147.337 34.684 147.337 33.9589V30.6355C147.337 29.9104 147.156 29.3666 146.735 29.004C146.374 28.6415 145.832 28.3998 145.11 28.3998C144.388 28.3998 143.846 28.5811 143.425 29.004C143.063 29.3666 142.883 29.9104 142.883 30.6355V33.9589C142.883 34.684 143.063 35.2278 143.425 35.6508C143.846 36.0133 144.388 36.1946 145.11 36.1946Z" fill="#F8F8F8"/>
<path d="M129.281 26.8892H133.313C134.517 26.8892 135.48 27.0704 136.202 27.433C136.924 27.7955 137.406 28.3394 137.707 29.1249C138.008 29.9104 138.188 30.9376 138.188 32.3274C138.188 33.6568 138.008 34.7444 137.707 35.5299C137.406 36.3155 136.864 36.8593 136.202 37.2218C135.48 37.5844 134.577 37.7657 133.313 37.7657H129.281V26.8892ZM133.313 36.0133C133.975 36.0133 134.517 35.8925 134.938 35.6508C135.299 35.4091 135.6 35.0465 135.781 34.5027C135.961 33.9589 136.022 33.2338 136.022 32.3274C136.022 31.421 135.961 30.6959 135.781 30.1521C135.6 29.6083 135.36 29.2457 134.938 29.004C134.577 28.7623 134.035 28.6415 133.313 28.6415H131.508V36.0738H133.313V36.0133Z" fill="#F8F8F8"/>
<path d="M125.91 26.8892V35.1674C125.91 36.0133 125.73 36.6176 125.429 37.0406C125.068 37.4635 124.526 37.7052 123.804 37.7052H122.299L119.109 30.3334V37.7052H117.063V26.8892H119.531L123.443 35.8321H123.503C123.684 35.8321 123.804 35.7716 123.864 35.5904C123.924 35.4091 123.984 35.1674 123.984 34.7444V26.8892H125.91Z" fill="#F8F8F8"/>
<path d="M111.345 26.8892H113.512V37.7052H111.345V26.8892Z" fill="#F8F8F8"/>
<path d="M91.9651 57.8871C91.9651 59.6394 92.266 61.0292 92.9281 62.1169C93.6503 63.2045 94.854 64.3526 96.5392 65.6819L88.2335 72.9329C84.5621 71.0598 82.0343 68.5823 80.7102 65.4402C79.1453 67.9177 77.099 69.7908 74.6915 71.0598C72.2841 72.2683 69.2747 72.8725 65.7237 72.8725C59.7653 72.8725 55.0105 70.8785 51.3993 66.9509C47.9085 62.9024 46.1631 57.5246 46.1631 50.757V47.7357C46.1631 43.6873 46.8853 40.0618 48.3298 36.7384C49.7743 33.3546 52.0012 30.6959 54.8901 28.7019C57.8995 26.6474 61.4505 25.6202 65.6635 25.6202C71.622 25.6202 76.2564 27.4934 79.5065 31.1793V15.0458C79.5065 13.2935 79.1453 11.9037 78.4833 10.8161C77.8212 9.72842 76.6777 8.58035 74.9323 7.251L83.238 0C86.4881 1.63147 88.715 3.56507 89.9789 5.74037C91.2428 7.85525 91.9049 10.8161 91.9049 14.6228V57.8871H91.9651ZM79.5666 43.083C78.1222 37.826 74.6915 35.2278 69.3951 35.2278C65.9645 35.2278 63.3163 36.4967 61.3903 38.9741C59.5245 41.3911 58.6217 44.3519 58.6217 47.7961V50.8778C58.6217 54.3825 59.5245 57.3433 61.3903 59.7603C63.2561 62.1773 65.9043 63.3858 69.3951 63.3858C74.7517 63.3858 78.1222 60.7875 79.5666 55.5305V43.083Z" fill="#F8F8F8"/>
<path d="M30.9962 91L22.8108 82.1176C26.8433 78.3712 27.084 73.2351 27.1442 72.8726V26.7683H39.1815V72.8726C39.1214 74.0206 38.8806 83.6282 30.9962 91Z" fill="#F8F8F8"/>
<path d="M14.866 73.1143C7.10195 65.259 6.92139 56.1953 6.92139 55.2285V26.6475H18.9587V55.168C18.9587 55.591 19.2596 60.3646 23.4727 64.6548L14.866 73.1143Z" fill="#F8F8F8"/>
<path d="M3.43063 7.25098C3.06952 8.88245 2.16672 11.4203 0 13.4747L6.98164 21.0279C12.2179 16.1939 13.4818 10.1514 13.7827 7.3114H3.43063V7.25098Z" fill="#E90006"/>
<path d="M23.6533 7.25098C23.2922 8.88245 22.3894 11.4203 20.2227 13.4747L27.2043 21.0279C32.4405 16.1939 33.7045 10.1514 34.0054 7.3114H23.6533V7.25098Z" fill="#E90006"/>
</svg>
